<svg xmlns="http://www.w3.org/2000/svg" xmlns:xlink="http://www.w3.org/1999/xlink" xmlns:lucid="lucid" width="234" height="322"><g transform="translate(-607 -39)" lucid:page-tab-id="To1Rq8V2WXqF"><g filter="url(#a)"><path d="M628 140h32v40h-32z" fill="none"/><use xlink:href="#b" transform="matrix(1,0,0,1,628,140) translate(8.592592592592592 25.333333333333336)"/></g><g filter="url(#c)"><path d="M700 140h40v40h-40z" fill="none"/><use xlink:href="#d" transform="matrix(1,0,0,1,700,140) translate(16.555555555555554 25.333333333333336)"/></g><g filter="url(#c)"><path d="M660 60h40v40h-40z" fill="none"/><use xlink:href="#d" transform="matrix(1,0,0,1,660,60) translate(16.555555555555554 25.333333333333336)"/></g><g filter="url(#c)"><path d="M740 220h40v40h-40z" fill="none"/><use xlink:href="#d" transform="matrix(1,0,0,1,740,220) translate(16.555555555555554 25.333333333333336)"/></g><path d="M661.2 127.5l-9.73 13.1-1.6-1.2 11.33-15.26zm19.97-26.9l-11.33 15.26v-3.36l9.73-13.1z" fill="#494949"/><path d="M681.17 100.6l-.8-.6h1.25zM650.67 140h-1.25l.44-.6z" fill="#494949"/><use xlink:href="#e" transform="matrix(1,0,0,1,661.1981790123457,110.66666666666666) translate(0.004999999999999893 12.444444444444446)"/><path d="M716.52 139.34l-1.5 1.32-12.63-14.27v-3.03zm-22.77-25.73v3.03l-14.13-15.97 1.5-1.32zM679.62 100.66l-.58-.66h1.33z" fill="#494949"/><path d="M717.1 140h-1.33l.75-.66z" fill="#494949"/><path d="M716.52 139.34l-1.5 1.32-12.63-14.27v-3.03zm-22.77-25.73v3.03l-14.13-15.97 1.5-1.32z" fill="#494949"/><path d="M716.52 139.34l-1.5 1.32-12.63-14.27v-3.03zm-22.77-25.73v3.03l-14.13-15.97 1.5-1.32z" fill="#494949"/><path d="M716.52 139.34l-1.5 1.32-12.63-14.27v-3.03zm-22.77-25.73v3.03l-14.13-15.97 1.5-1.32z" fill="#494949"/><path d="M716.52 139.34l-1.5 1.32-12.63-14.27v-3.03zm-22.77-25.73v3.03l-14.13-15.97 1.5-1.32z" fill="#494949"/><use xlink:href="#f" transform="matrix(1,0,0,1,693.7481790123456,110.66666666666666) translate(0.004999999999999893 12.444444444444446)"/><path d="M761 219.3l-1.4 1.4-15.13-15v-2.82zm-25.17-25v2.82l-16.53-16.4 1.4-1.43zM719.3 180.7l-.72-.7H720zM761.72 220h-1.42l.7-.7z" fill="#494949"/><use xlink:href="#f" transform="matrix(1,0,0,1,735.829012345679,190.66666666666666) translate(0.004999999999999893 12.444444444444446)"/><path d="M697.93 206.38l-12.68 14.28-1.5-1.32 14.18-15.98zm22.82-25.72l-14.18 15.98v-3.02l12.68-14.28z" fill="#494949"/><path d="M720.75 180.66L720 180h1.34zM684.5 220h-1.34l.6-.66z" fill="#494949"/><use xlink:href="#e" transform="matrix(1,0,0,1,697.929012345679,190.66666666666666) translate(0.004999999999999893 12.444444444444446)"/><g filter="url(#a)"><path d="M668 220h32v40h-32z" fill="none"/><use xlink:href="#g" transform="matrix(1,0,0,1,668,220) translate(8.592592592592592 25.333333333333336)"/></g><g filter="url(#a)"><path d="M704 300h32v40h-32z" fill="none"/><use xlink:href="#h" transform="matrix(1,0,0,1,704,300) translate(8.592592592592592 25.333333333333336)"/></g><path d="M735.68 285.74L720.7 300.7l-1.4-1.4 16.38-16.4zm25.03-25.03l-16.38 16.4v-2.84l14.97-14.97zM760.7 260.7l-.7-.7h1.4zM720 300h-1.4l.7-.7z" fill="#494949"/><use xlink:href="#e" transform="matrix(1,0,0,1,735.679012345679,270.6666666666667) translate(0.004999999999999893 12.444444444444446)"/><g filter="url(#c)"><path d="M780 300h40v40h-40z" fill="none"/><use xlink:href="#i" transform="matrix(1,0,0,1,780,300) translate(6.740740740740737 25.333333333333336)"/></g><path d="M801 299.3l-1.4 1.4-15.13-15v-2.82zm-25.17-25v2.82l-16.53-16.4 1.4-1.43zM759.3 260.7l-.72-.7H760zM801.72 300h-1.42l.7-.7z" fill="#494949"/><use xlink:href="#f" transform="matrix(1,0,0,1,775.829012345679,270.6666666666667) translate(0.004999999999999893 12.444444444444446)"/><defs><path fill="#3d4752" d="M54-142c48-35 137-8 131 61C196 18 31 33 14-55l32-4c7 23 22 37 52 37 35-1 51-22 54-58 4-55-73-65-99-34H22l8-134h141v27H59" id="j"/><use transform="matrix(0.07407407407407408,0,0,0.07407407407407408,0,0)" xlink:href="#j" id="b"/><filter id="a" filterUnits="objectBoundingBox" x="-.31" y="-.1" width="1.63" height="1.5"><feOffset result="offOut" in="SourceAlpha" dy="6"/><feGaussianBlur result="blurOut" in="offOut" stdDeviation="5"/><feColorMatrix result="colorOut" in="blurOut" values="0 0 0 0 0 0 0 0 0 0 0 0 0 0 0 0 0 0 0.16862745098039217 0"/><feBlend in="SourceGraphic" in2="colorOut"/></filter><path fill="#3d4752" d="M32 76v-337h29V76H32" id="k"/><use transform="matrix(0.07407407407407408,0,0,0.07407407407407408,0,0)" xlink:href="#k" id="d"/><filter id="c" filterUnits="objectBoundingBox" x="-.25" y="-.1" width="1.5" height="1.5"><feOffset result="offOut" in="SourceAlpha" dy="6"/><feGaussianBlur result="blurOut" in="offOut" stdDeviation="5"/><feColorMatrix result="colorOut" in="blurOut" values="0 0 0 0 0 0 0 0 0 0 0 0 0 0 0 0 0 0 0.16862745098039217 0"/><feBlend in="SourceGraphic" in2="colorOut"/></filter><path fill="#3d4752" d="M27 0v-27h64v-190l-56 39v-29l58-41h29v221h61V0H27" id="l"/><use transform="matrix(0.04320987654320988,0,0,0.04320987654320988,0,0)" xlink:href="#l" id="e"/><path fill="#3d4752" d="M101-251c82-7 93 87 43 132L82-64C71-53 59-42 53-27h129V0H18c2-99 128-94 128-182 0-28-16-43-45-43s-46 15-49 41l-32-3c6-41 34-60 81-64" id="m"/><use transform="matrix(0.04320987654320988,0,0,0.04320987654320988,0,0)" xlink:href="#m" id="f"/><path fill="#3d4752" d="M110-160c48 1 74 30 74 79 0 53-28 85-80 85-65 0-83-55-86-122-5-90 50-162 133-122 14 7 22 21 27 39l-31 6c-5-40-67-38-82-6-9 19-15 44-15 74 11-20 30-34 60-33zm-7 138c34 0 49-23 49-58s-16-56-50-56c-29 0-50 16-49 49 1 36 15 65 50 65" id="n"/><use transform="matrix(0.07407407407407408,0,0,0.07407407407407408,0,0)" xlink:href="#n" id="g"/><path fill="#3d4752" d="M64 0c3-98 48-159 88-221H18v-27h164v26C143-157 98-101 97 0H64" id="o"/><use transform="matrix(0.07407407407407408,0,0,0.07407407407407408,0,0)" xlink:href="#o" id="h"/><path fill="#3d4752" d="M117-194c89-4 53 116 60 194h-32v-121c0-31-8-49-39-48C34-167 62-67 57 0H25l-1-190h30c1 10-1 24 2 32 11-22 29-35 61-36" id="p"/><path fill="#3d4752" d="M24-231v-30h32v30H24zM24 0v-190h32V0H24" id="q"/><path fill="#3d4752" d="M24 0v-261h32V0H24" id="r"/><g id="i"><use transform="matrix(0.07407407407407408,0,0,0.07407407407407408,0,0)" xlink:href="#p"/><use transform="matrix(0.07407407407407408,0,0,0.07407407407407408,14.814814814814817,0)" xlink:href="#q"/><use transform="matrix(0.07407407407407408,0,0,0.07407407407407408,20.666666666666668,0)" xlink:href="#r"/></g></defs></g></svg>