<svg xmlns="http://www.w3.org/2000/svg" xmlns:xlink="http://www.w3.org/1999/xlink" xmlns:lucid="lucid" width="802" height="342"><g transform="translate(-59 1)" lucid:page-tab-id="uw1R6DEeujYU"><g filter="url(#a)"><path d="M460 120h240v60H460z" fill="none"/><use xlink:href="#b" transform="matrix(1,0,0,1,460,120) translate(64.35493827160492 34.888888888888886)"/></g><g filter="url(#c)"><path d="M80 20h140v60H80z" fill="none"/><use xlink:href="#d" transform="matrix(1,0,0,1,80,20) translate(18.925925925925924 35.333333333333336)"/><use xlink:href="#e" transform="matrix(1,0,0,1,80,20) translate(84.11111111111111 35.333333333333336)"/></g><g filter="url(#f)"><path d="M340 140h100v60H340z" stroke="#3d4752" stroke-width="4" fill="#fff"/><use xlink:href="#g" transform="matrix(1,0,0,1,345,145) translate(22.07407407407407 30.333333333333336)"/></g><path d="M322.77 154.86L220 52.66" stroke="#494949" stroke-width="4" fill="none"/><path d="M333.4 165.44l-13.37-6.78 6.53-6.57z" fill="#494949"/><path d="M338 170l-21.33-10.8 10.42-10.47zm-14.6-11.88l5.42 2.75-2.78-5.42zM221.4 51.25l-1.4 1.42v-2.82z" fill="#494949"/><g filter="url(#c)"><path d="M80 140h140v60H80z" fill="none"/><use xlink:href="#d" transform="matrix(1,0,0,1,80,140) translate(18.925925925925924 35.333333333333336)"/><use xlink:href="#h" transform="matrix(1,0,0,1,80,140) translate(84.11111111111111 35.333333333333336)"/></g><path d="M316.53 170H220" stroke="#494949" stroke-width="4" fill="none"/><path d="M331.53 170l-14.27 4.64v-9.28z" fill="#494949"/><path d="M338 170l-22.74 7.4v-14.8zm-18.74 1.88l5.8-1.88-5.8-1.88z" fill="#494949"/><path fill="#494949"/><g filter="url(#c)"><path d="M80 260h140v60H80z" fill="none"/><use xlink:href="#d" transform="matrix(1,0,0,1,80,260) translate(18.925925925925924 35.333333333333336)"/><use xlink:href="#i" transform="matrix(1,0,0,1,80,260) translate(84.11111111111111 35.333333333333336)"/></g><path d="M322.77 185.14L220 287.34" stroke="#494949" stroke-width="4" fill="none"/><path d="M326.56 187.9l-6.53-6.56 13.38-6.78z" fill="#494949"/><path d="M327.1 191.27l-10.43-10.48L338 170zm-3.7-9.4l2.64 2.68 2.78-5.42zM221.4 288.75l-1.4 1.4v-2.82z" fill="#494949"/><path d="M442 170h76.53" stroke="#494949" stroke-width="4" fill="none"/><path d="M442 172h-2v-4h2z" fill="#494949"/><path d="M533.53 170l-14.27 4.64v-9.28z" stroke="#494949" stroke-width="4" fill="#494949"/><use xlink:href="#j" transform="matrix(1,0,0,1,464.391975308642,174.00000000000003) translate(0.004999999999999005 19.555555555555557)"/><path d="M538.04 170h80.5" stroke="#494949" stroke-width="4" fill="none"/><path d="M633.53 170l-14.27 4.64v-9.28z" stroke="#494949" stroke-width="4" fill="#494949"/><use xlink:href="#k" transform="matrix(1,0,0,1,557.7253086419753,174) translate(0.004999999999999005 19.555555555555557)"/><path d="M640 170h78.53" stroke="#494949" stroke-width="4" fill="none"/><path d="M733.53 170l-14.27 4.64v-9.28z" stroke="#494949" stroke-width="4" fill="#494949"/><use xlink:href="#l" transform="matrix(1,0,0,1,664.391975308642,174) translate(0.004999999999999005 19.555555555555557)"/><path d="M740 170h50v26.53" stroke="#494949" stroke-width="4" fill="none"/><path d="M790 211.53l-4.64-14.27h9.28z" fill="#494949"/><path d="M790 218l-7.4-22.74h14.8zm-1.88-18.74l1.88 5.8 1.88-5.8z" fill="#494949"/><g filter="url(#f)"><path d="M740 220h100v60H740z" stroke="#3d4752" stroke-width="4" fill="#fff"/><use xlink:href="#g" transform="matrix(1,0,0,1,745,225) translate(22.07407407407407 30.333333333333336)"/></g><defs><path fill="#3d4752" d="M210-169c-67 3-38 105-44 169h-31v-121c0-29-5-50-35-48C34-165 62-65 56 0H25l-1-190h30c1 10-1 24 2 32 10-44 99-50 107 0 11-21 27-35 58-36 85-2 47 119 55 194h-31v-121c0-29-5-49-35-48" id="m"/><path fill="#3d4752" d="M100-194c63 0 86 42 84 106H49c0 40 14 67 53 68 26 1 43-12 49-29l28 8c-11 28-37 45-77 45C44 4 14-33 15-96c1-61 26-98 85-98zm52 81c6-60-76-77-97-28-3 7-6 17-6 28h103" id="n"/><path fill="#3d4752" d="M135-143c-3-34-86-38-87 0 15 53 115 12 119 90S17 21 10-45l28-5c4 36 97 45 98 0-10-56-113-15-118-90-4-57 82-63 122-42 12 7 21 19 24 35" id="o"/><path fill="#3d4752" d="M141-36C126-15 110 5 73 4 37 3 15-17 15-53c-1-64 63-63 125-63 3-35-9-54-41-54-24 1-41 7-42 31l-33-3c5-37 33-52 76-52 45 0 72 20 72 64v82c-1 20 7 32 28 27v20c-31 9-61-2-59-35zM48-53c0 20 12 33 32 33 41-3 63-29 60-74-43 2-92-5-92 41" id="p"/><path fill="#3d4752" d="M177-190C167-65 218 103 67 71c-23-6-38-20-44-43l32-5c15 47 100 32 89-28v-30C133-14 115 1 83 1 29 1 15-40 15-95c0-56 16-97 71-98 29-1 48 16 59 35 1-10 0-23 2-32h30zM94-22c36 0 50-32 50-73 0-42-14-75-50-75-39 0-46 34-46 75s6 73 46 73" id="q"/><g id="b"><use transform="matrix(0.06790123456790124,0,0,0.06790123456790124,0,0)" xlink:href="#m"/><use transform="matrix(0.06790123456790124,0,0,0.06790123456790124,20.302469135802472,0)" xlink:href="#n"/><use transform="matrix(0.06790123456790124,0,0,0.06790123456790124,33.88271604938272,0)" xlink:href="#o"/><use transform="matrix(0.06790123456790124,0,0,0.06790123456790124,46.104938271604944,0)" xlink:href="#o"/><use transform="matrix(0.06790123456790124,0,0,0.06790123456790124,58.32716049382716,0)" xlink:href="#p"/><use transform="matrix(0.06790123456790124,0,0,0.06790123456790124,71.90740740740742,0)" xlink:href="#q"/><use transform="matrix(0.06790123456790124,0,0,0.06790123456790124,85.48765432098767,0)" xlink:href="#n"/><use transform="matrix(0.06790123456790124,0,0,0.06790123456790124,99.06790123456793,0)" xlink:href="#o"/></g><filter id="a" filterUnits="objectBoundingBox" x="-.04" y="-.07" width="1.08" height="1.33"><feOffset result="offOut" in="SourceAlpha" dy="6"/><feGaussianBlur result="blurOut" in="offOut" stdDeviation="5"/><feColorMatrix result="colorOut" in="blurOut" values="0 0 0 0 0 0 0 0 0 0 0 0 0 0 0 0 0 0 0.16862745098039217 0"/><feBlend in="SourceGraphic" in2="colorOut"/></filter><path fill="#3d4752" d="M117-194c89-4 53 116 60 194h-32v-121c0-31-8-49-39-48C34-167 62-67 57 0H25l-1-190h30c1 10-1 24 2 32 11-22 29-35 61-36" id="r"/><path fill="#3d4752" d="M85-194c31 0 48 13 60 33l-1-100h32l1 261h-30c-2-10 0-23-3-31C134-8 116 4 85 4 32 4 16-35 15-94c0-66 23-100 70-100zm9 24c-40 0-46 34-46 75 0 40 6 74 45 74 42 0 51-32 51-76 0-42-9-74-50-73" id="s"/><g id="d"><use transform="matrix(0.07407407407407408,0,0,0.07407407407407408,0,0)" xlink:href="#o"/><use transform="matrix(0.07407407407407408,0,0,0.07407407407407408,13.333333333333336,0)" xlink:href="#n"/><use transform="matrix(0.07407407407407408,0,0,0.07407407407407408,28.148148148148152,0)" xlink:href="#r"/><use transform="matrix(0.07407407407407408,0,0,0.07407407407407408,42.96296296296297,0)" xlink:href="#s"/></g><path fill="#3d4752" d="M240 0l2-218c-23 76-54 145-80 218h-23L58-218 59 0H30v-248h44l77 211c21-75 51-140 76-211h43V0h-30" id="t"/><path fill="#3d4752" d="M27 0v-27h64v-190l-56 39v-29l58-41h29v221h61V0H27" id="u"/><g id="e"><use transform="matrix(0.07407407407407408,0,0,0.07407407407407408,0,0)" xlink:href="#t"/><use transform="matrix(0.07407407407407408,0,0,0.07407407407407408,22.148148148148152,0)" xlink:href="#u"/></g><filter id="c" filterUnits="objectBoundingBox" x="-.07" y="-.07" width="1.14" height="1.33"><feOffset result="offOut" in="SourceAlpha" dy="6"/><feGaussianBlur result="blurOut" in="offOut" stdDeviation="5"/><feColorMatrix result="colorOut" in="blurOut" values="0 0 0 0 0 0 0 0 0 0 0 0 0 0 0 0 0 0 0.16862745098039217 0"/><feBlend in="SourceGraphic" in2="colorOut"/></filter><path fill="#3d4752" d="M115-194c55 1 70 41 70 98S169 2 115 4C84 4 66-9 55-30l1 105H24l-1-265h31l2 30c10-21 28-34 59-34zm-8 174c40 0 45-34 45-75s-6-73-45-74c-42 0-51 32-51 76 0 43 10 73 51 73" id="v"/><path fill="#3d4752" d="M100-194c62-1 85 37 85 99 1 63-27 99-86 99S16-35 15-95c0-66 28-99 85-99zM99-20c44 1 53-31 53-75 0-43-8-75-51-75s-53 32-53 75 10 74 51 75" id="w"/><path fill="#3d4752" d="M114-163C36-179 61-72 57 0H25l-1-190h30c1 12-1 29 2 39 6-27 23-49 58-41v29" id="x"/><path fill="#3d4752" d="M59-47c-2 24 18 29 38 22v24C64 9 27 4 27-40v-127H5v-23h24l9-43h21v43h35v23H59v120" id="y"/><g id="g"><use transform="matrix(0.07407407407407408,0,0,0.07407407407407408,0,0)" xlink:href="#v"/><use transform="matrix(0.07407407407407408,0,0,0.07407407407407408,14.814814814814817,0)" xlink:href="#w"/><use transform="matrix(0.07407407407407408,0,0,0.07407407407407408,29.629629629629633,0)" xlink:href="#x"/><use transform="matrix(0.07407407407407408,0,0,0.07407407407407408,38.44444444444445,0)" xlink:href="#y"/></g><filter id="f" filterUnits="objectBoundingBox" x="-.1" y="-.07" width="1.2" height="1.33"><feOffset result="offOut" in="SourceAlpha" dy="6"/><feGaussianBlur result="blurOut" in="offOut" stdDeviation="5"/><feColorMatrix result="colorOut" in="blurOut" values="0 0 0 0 0 0 0 0 0 0 0 0 0 0 0 0 0 0 0.16862745098039217 0"/><feBlend in="SourceGraphic" in2="colorOut"/></filter><path fill="#3d4752" d="M101-251c82-7 93 87 43 132L82-64C71-53 59-42 53-27h129V0H18c2-99 128-94 128-182 0-28-16-43-45-43s-46 15-49 41l-32-3c6-41 34-60 81-64" id="z"/><g id="h"><use transform="matrix(0.07407407407407408,0,0,0.07407407407407408,0,0)" xlink:href="#t"/><use transform="matrix(0.07407407407407408,0,0,0.07407407407407408,22.148148148148152,0)" xlink:href="#z"/></g><path fill="#3d4752" d="M126-127c33 6 58 20 58 59 0 88-139 92-164 29-3-8-5-16-6-25l32-3c6 27 21 44 54 44 32 0 52-15 52-46 0-38-36-46-79-43v-28c39 1 72-4 72-42 0-27-17-43-46-43-28 0-47 15-49 41l-32-3c6-42 35-63 81-64 48-1 79 21 79 65 0 36-21 52-52 59" id="A"/><g id="i"><use transform="matrix(0.07407407407407408,0,0,0.07407407407407408,0,0)" xlink:href="#t"/><use transform="matrix(0.07407407407407408,0,0,0.07407407407407408,22.148148148148152,0)" xlink:href="#A"/></g><g id="j"><use transform="matrix(0.06790123456790124,0,0,0.06790123456790124,0,0)" xlink:href="#t"/><use transform="matrix(0.06790123456790124,0,0,0.06790123456790124,20.302469135802472,0)" xlink:href="#A"/></g><g id="k"><use transform="matrix(0.06790123456790124,0,0,0.06790123456790124,0,0)" xlink:href="#t"/><use transform="matrix(0.06790123456790124,0,0,0.06790123456790124,20.302469135802472,0)" xlink:href="#z"/></g><g id="l"><use transform="matrix(0.06790123456790124,0,0,0.06790123456790124,0,0)" xlink:href="#t"/><use transform="matrix(0.06790123456790124,0,0,0.06790123456790124,20.302469135802472,0)" xlink:href="#u"/></g></defs></g></svg>