<?xml version="1.0" encoding="UTF-8" standalone="no"?>
<!-- Created with Inkscape (http://www.inkscape.org/) -->
<svg
   xmlns:dc="http://purl.org/dc/elements/1.1/"
   xmlns:cc="http://web.resource.org/cc/"
   xmlns:rdf="http://www.w3.org/1999/02/22-rdf-syntax-ns#"
   xmlns:svg="http://www.w3.org/2000/svg"
   xmlns="http://www.w3.org/2000/svg"
   xmlns:sodipodi="http://sodipodi.sourceforge.net/DTD/sodipodi-0.dtd"
   xmlns:inkscape="http://www.inkscape.org/namespaces/inkscape"
   width="700"
   height="270"
   id="svg4754"
   sodipodi:version="0.32"
   inkscape:version="0.44"
   version="1.0"
   sodipodi:docbase="C:\Documents and Settings\Nom\Bureau"
   sodipodi:docname="rainbow_table1.svg">
  <defs
     id="defs4756" />
  <sodipodi:namedview
     id="base"
     pagecolor="#ffffff"
     bordercolor="#666666"
     borderopacity="1.0"
     inkscape:pageopacity="0.0"
     inkscape:pageshadow="2"
     inkscape:zoom="1.4"
     inkscape:cx="319.56502"
     inkscape:cy="150.2968"
     inkscape:document-units="px"
     inkscape:current-layer="layer1"
     inkscape:window-width="1280"
     inkscape:window-height="753"
     inkscape:window-x="34"
     inkscape:window-y="58"
     showguides="true"
     inkscape:guide-bbox="true"
     width="700px"
     height="270px" />
  <metadata
     id="metadata4759">
    <rdf:RDF>
      <cc:Work
         rdf:about="">
        <dc:format>image/svg+xml</dc:format>
        <dc:type
           rdf:resource="http://purl.org/dc/dcmitype/StillImage" />
      </cc:Work>
    </rdf:RDF>
  </metadata>
  <g
     inkscape:label="Calque 1"
     inkscape:groupmode="layer"
     id="layer1"
     transform="translate(-220.0461,-327.8291)">
    <rect
       style="fill:#5f5;stroke:black;stroke-width:1.41716313;stroke-miterlimit:4;stroke-dasharray:2.83432632, 2.83432632;stroke-dashoffset:0;stroke-opacity:1"
       id="rect1872"
       width="71.350029"
       height="28.411825"
       x="234.75468"
       y="346.34497" />
    <text
       xml:space="preserve"
       style="font-size:12.05837727px;font-style:normal;font-variant:normal;font-weight:normal;font-stretch:normal;text-align:start;line-height:125%;writing-mode:lr-tb;text-anchor:start;fill:black;fill-opacity:1;stroke:none;stroke-width:1px;stroke-linecap:butt;stroke-linejoin:miter;stroke-opacity:1;font-family:Arial"
       x="243.52271"
       y="366.2019"
       id="text1872"
       transform="scale(1.005423,0.994607)"
       sodipodi:linespacing="125%"><tspan
         sodipodi:role="line"
         id="tspan1874"
         x="243.52271"
         y="366.2019">wikipedia</tspan></text>
    <path
       id="path3449"
       d="M 328.93054,354.33496 L 328.93054,357.76492 L 311.86146,357.76492 L 311.86146,363.35159 L 328.93054,363.35159 L 328.93054,366.78154 L 333.81079,363.6634 L 338.7146,360.54526 L 333.81079,357.4531 L 328.93054,354.33496 z "
       style="fill:aqua;fill-rule:evenodd;stroke:black;stroke-width:1.80902791px;stroke-linecap:butt;stroke-linejoin:miter;stroke-opacity:1" />
    <text
       xml:space="preserve"
       style="font-size:18.50276184px;font-style:normal;font-weight:normal;fill:black;fill-opacity:1;stroke:none;stroke-width:1px;stroke-linecap:butt;stroke-linejoin:miter;stroke-opacity:1;font-family:Arial"
       x="318.3179"
       y="344.79422"
       id="text2416"
       transform="scale(0.992441,1.007616)"><tspan
         sodipodi:role="line"
         id="tspan2418"
         x="318.3179"
         y="344.79422">H</tspan></text>
    <rect
       y="346.34497"
       x="344.06165"
       height="28.411825"
       width="53.135723"
       id="rect2420"
       style="fill:#d5ffd5;stroke:black;stroke-width:1.4171629;stroke-miterlimit:4;stroke-dasharray:2.83432576, 2.83432576;stroke-dashoffset:0;stroke-opacity:1"
       ry="11.428572" />
    <text
       id="text2422"
       y="366.20239"
       x="348.56451"
       style="font-size:12.05839634px;font-style:normal;font-weight:normal;fill:black;fill-opacity:1;stroke:none;stroke-width:1px;stroke-linecap:butt;stroke-linejoin:miter;stroke-opacity:1;font-family:Arial"
       xml:space="preserve"
       transform="scale(1.005423,0.994607)"><tspan
         y="366.20239"
         x="348.56451"
         id="tspan2424"
         sodipodi:role="line">ao4kd</tspan></text>
    <path
       style="fill:yellow;fill-rule:evenodd;stroke:black;stroke-width:1.80902791px;stroke-linecap:butt;stroke-linejoin:miter;stroke-opacity:1"
       d="M 419.62124,354.33496 L 419.62124,357.76492 L 402.55215,357.76492 L 402.55215,363.35159 L 419.62124,363.35159 L 419.62124,366.78154 L 424.50149,363.6634 L 429.4053,360.54526 L 424.50149,357.4531 L 419.62124,354.33496 z "
       id="path2426" />
    <text
       transform="scale(0.992441,1.007616)"
       id="text2428"
       y="344.79416"
       x="407.06143"
       style="font-size:18.50280952px;font-style:normal;font-weight:normal;fill:black;fill-opacity:1;stroke:none;stroke-width:1px;stroke-linecap:butt;stroke-linejoin:miter;stroke-opacity:1;font-family:Arial"
       xml:space="preserve"><tspan
         y="344.79416"
         x="407.06143"
         id="tspan2430"
         sodipodi:role="line">R<tspan
   style="font-size:10.99992561px"
   id="tspan2518">1</tspan></tspan></text>
    <rect
       style="fill:#5f5;stroke:black;stroke-width:1.41716313;stroke-miterlimit:4;stroke-dasharray:2.83432632, 2.83432632;stroke-dashoffset:0;stroke-opacity:1"
       id="rect2432"
       width="71.350029"
       height="28.411825"
       x="434.75244"
       y="346.34497" />
    <text
       xml:space="preserve"
       style="font-size:12.05844402px;font-style:normal;font-weight:normal;fill:black;fill-opacity:1;stroke:none;stroke-width:1px;stroke-linecap:butt;stroke-linejoin:miter;stroke-opacity:1;font-family:Arial"
       x="449.1785"
       y="366.20352"
       id="text2434"
       transform="scale(1.005423,0.994607)"><tspan
         sodipodi:role="line"
         id="tspan2436"
         x="449.1785"
         y="366.20352">secret</tspan></text>
    <path
       id="path2438"
       d="M 530.31193,354.33496 L 530.31193,357.76492 L 513.24285,357.76492 L 513.24285,363.35159 L 530.31193,363.35159 L 530.31193,366.78154 L 535.19218,363.6634 L 540.09599,360.54526 L 535.19218,357.4531 L 530.31193,354.33496 z "
       style="fill:aqua;fill-rule:evenodd;stroke:black;stroke-width:1.80902791px;stroke-linecap:butt;stroke-linejoin:miter;stroke-opacity:1" />
    <text
       xml:space="preserve"
       style="font-size:18.50292969px;font-style:normal;font-weight:normal;fill:black;fill-opacity:1;stroke:none;stroke-width:1px;stroke-linecap:butt;stroke-linejoin:miter;stroke-opacity:1;font-family:Arial"
       x="522.62579"
       y="344.7951"
       id="text2440"
       transform="scale(0.992441,1.007616)"><tspan
         sodipodi:role="line"
         id="tspan2442"
         x="522.62579"
         y="344.7951">H</tspan></text>
    <path
       id="path2450"
       d="M 621.04981,354.33496 L 621.04981,357.76492 L 603.98072,357.76492 L 603.98072,363.35159 L 621.04981,363.35159 L 621.04981,366.78154 L 625.93006,363.6634 L 630.83387,360.54526 L 625.93006,357.4531 L 621.04981,354.33496 z "
       style="fill:yellow;fill-rule:evenodd;stroke:black;stroke-width:1.80902791px;stroke-linecap:butt;stroke-linejoin:miter;stroke-opacity:1" />
    <text
       xml:space="preserve"
       style="font-size:18.50274658px;font-style:normal;font-weight:normal;fill:black;fill-opacity:1;stroke:none;stroke-width:1px;stroke-linecap:butt;stroke-linejoin:miter;stroke-opacity:1;font-family:Arial"
       x="610.01923"
       y="344.79318"
       id="text2452"
       transform="scale(0.992441,1.007616)"><tspan
         sodipodi:role="line"
         id="tspan2454"
         x="610.01923"
         y="344.79318">R<tspan
   style="font-size:10.999897px"
   id="tspan2520">2</tspan></tspan></text>
    <rect
       y="346.34497"
       x="636.18103"
       height="28.411825"
       width="71.350029"
       id="rect2456"
       style="fill:#5f5;stroke:black;stroke-width:1.41716313;stroke-miterlimit:4;stroke-dasharray:2.83432632, 2.83432632;stroke-dashoffset:0;stroke-opacity:1" />
    <text
       transform="scale(1.005423,0.994607)"
       id="text2458"
       y="366.2052"
       x="653.50726"
       style="font-size:12.05850601px;font-style:normal;font-weight:normal;fill:black;fill-opacity:1;stroke:none;stroke-width:1px;stroke-linecap:butt;stroke-linejoin:miter;stroke-opacity:1;font-family:Arial"
       xml:space="preserve"><tspan
         y="366.2052"
         x="653.50726"
         id="tspan2460"
         sodipodi:role="line">jimbo</tspan></text>
    <rect
       ry="11.428572"
       style="fill:#d5ffd5;stroke:black;stroke-width:1.4171629;stroke-miterlimit:4;stroke-dasharray:2.83432576, 2.83432576;stroke-dashoffset:0;stroke-opacity:1"
       id="rect1987"
       width="53.135723"
       height="28.411825"
       x="545.49023"
       y="346.34497" />
    <text
       transform="scale(1.005423,0.994607)"
       xml:space="preserve"
       style="font-size:12.05841541px;font-style:normal;font-weight:normal;fill:black;fill-opacity:1;stroke:none;stroke-width:1px;stroke-linecap:butt;stroke-linejoin:miter;stroke-opacity:1;font-family:Arial"
       x="550.89801"
       y="366.20294"
       id="text1989"><tspan
         sodipodi:role="line"
         x="550.89801"
         y="366.20294"
         id="tspan1993">9kpmw</tspan></text>
    <path
       style="fill:aqua;fill-rule:evenodd;stroke:black;stroke-width:1.80902791px;stroke-linecap:butt;stroke-linejoin:miter;stroke-opacity:1"
       d="M 731.7405,354.33496 L 731.7405,357.76492 L 714.67142,357.76492 L 714.67142,363.35159 L 731.7405,363.35159 L 731.7405,366.78154 L 736.62075,363.6634 L 741.52456,360.54526 L 736.62075,357.4531 L 731.7405,354.33496 z "
       id="path1997" />
    <text
       transform="scale(0.992441,1.007616)"
       id="text1999"
       y="344.79501"
       x="725.58752"
       style="font-size:18.50292397px;font-style:normal;font-weight:normal;fill:black;fill-opacity:1;stroke:none;stroke-width:1px;stroke-linecap:butt;stroke-linejoin:miter;stroke-opacity:1;font-family:Arial"
       xml:space="preserve"><tspan
         y="344.79501"
         x="725.58752"
         id="tspan2001"
         sodipodi:role="line">H</tspan></text>
    <path
       style="fill:yellow;fill-rule:evenodd;stroke:black;stroke-width:1.80902791px;stroke-linecap:butt;stroke-linejoin:miter;stroke-opacity:1"
       d="M 822.47838,354.33496 L 822.47838,357.76492 L 805.40929,357.76492 L 805.40929,363.35159 L 822.47838,363.35159 L 822.47838,366.78154 L 827.35863,363.6634 L 832.26244,360.54526 L 827.35863,357.4531 L 822.47838,354.33496 z "
       id="path2003" />
    <text
       transform="scale(0.992441,1.007616)"
       id="text2005"
       y="344.79309"
       x="812.98083"
       style="font-size:18.50274086px;font-style:normal;font-weight:normal;fill:black;fill-opacity:1;stroke:none;stroke-width:1px;stroke-linecap:butt;stroke-linejoin:miter;stroke-opacity:1;font-family:Arial"
       xml:space="preserve"><tspan
         y="344.79309"
         x="812.98083"
         id="tspan2007"
         sodipodi:role="line">R<tspan
   style="font-size:10.99995708px"
   id="tspan2024">3</tspan></tspan></text>
    <rect
       style="fill:#5f5;stroke:black;stroke-width:1.41716313;stroke-miterlimit:4;stroke-dasharray:2.83432632, 2.83432632;stroke-dashoffset:0;stroke-opacity:1"
       id="rect2011"
       width="71.350029"
       height="28.411825"
       x="837.60962"
       y="346.34497" />
    <text
       xml:space="preserve"
       style="font-size:12.05848217px;font-style:normal;font-weight:normal;fill:black;fill-opacity:1;stroke:none;stroke-width:1px;stroke-linecap:butt;stroke-linejoin:miter;stroke-opacity:1;font-family:Arial"
       x="845.89246"
       y="366.20459"
       id="text2013"
       transform="scale(1.005423,0.994607)"><tspan
         sodipodi:role="line"
         id="tspan2015"
         x="845.89246"
         y="366.20459">rootroot</tspan></text>
    <rect
       y="346.34497"
       x="746.91882"
       height="28.411825"
       width="53.135723"
       id="rect2017"
       style="fill:#d5ffd5;stroke:black;stroke-width:1.4171629;stroke-miterlimit:4;stroke-dasharray:2.83432576, 2.83432576;stroke-dashoffset:0;stroke-opacity:1"
       ry="11.428572" />
    <text
       id="text2019"
       y="366.20319"
       x="753.23145"
       style="font-size:12.05842495px;font-style:normal;font-weight:normal;fill:black;fill-opacity:1;stroke:none;stroke-width:1px;stroke-linecap:butt;stroke-linejoin:miter;stroke-opacity:1;font-family:Arial"
       xml:space="preserve"
       transform="scale(1.005423,0.994607)"><tspan
         id="tspan2021"
         y="366.20319"
         x="753.23145"
         sodipodi:role="line">v0d$x</tspan></text>
    <rect
       y="417.4668"
       x="234.75468"
       height="28.411825"
       width="71.350029"
       id="rect2194"
       style="fill:#2ad4ff;stroke:black;stroke-width:1.41716313;stroke-miterlimit:4;stroke-dasharray:2.83432632, 2.83432632;stroke-dashoffset:0;stroke-opacity:1" />
    <text
       transform="scale(1.005423,0.994607)"
       id="text2196"
       y="437.71371"
       x="243.52518"
       style="font-size:12.05850601px;font-style:normal;font-weight:normal;fill:black;fill-opacity:1;stroke:none;stroke-width:1px;stroke-linecap:butt;stroke-linejoin:miter;stroke-opacity:1;font-family:Arial"
       xml:space="preserve"><tspan
         y="437.71371"
         x="243.52518"
         id="tspan2198"
         sodipodi:role="line">abcdefgh</tspan></text>
    <path
       style="fill:aqua;fill-rule:evenodd;stroke:black;stroke-width:1.80902791px;stroke-linecap:butt;stroke-linejoin:miter;stroke-opacity:1"
       d="M 328.93054,425.45678 L 328.93054,428.88674 L 311.86146,428.88674 L 311.86146,434.47341 L 328.93054,434.47341 L 328.93054,437.90336 L 333.81079,434.78522 L 338.7146,431.66708 L 333.81079,428.57492 L 328.93054,425.45678 z "
       id="path2200" />
    <text
       transform="scale(0.992441,1.007616)"
       id="text2202"
       y="415.37521"
       x="318.31543"
       style="font-size:18.50260735px;font-style:normal;font-weight:normal;fill:black;fill-opacity:1;stroke:none;stroke-width:1px;stroke-linecap:butt;stroke-linejoin:miter;stroke-opacity:1;font-family:Arial"
       xml:space="preserve"><tspan
         y="415.37521"
         x="318.31543"
         id="tspan2204"
         sodipodi:role="line">H</tspan></text>
    <rect
       ry="11.428572"
       style="fill:#d5f6ff;stroke:black;stroke-width:1.4171629;stroke-miterlimit:4;stroke-dasharray:2.83432576, 2.83432576;stroke-dashoffset:0;stroke-opacity:1"
       id="rect2206"
       width="53.135723"
       height="28.411825"
       x="344.06165"
       y="417.4668" />
    <text
       transform="scale(1.005423,0.994607)"
       xml:space="preserve"
       style="font-size:12.05852509px;font-style:normal;font-weight:normal;fill:black;fill-opacity:1;stroke:none;stroke-width:1px;stroke-linecap:butt;stroke-linejoin:miter;stroke-opacity:1;font-family:Arial"
       x="348.56781"
       y="437.71414"
       id="text2208"><tspan
         sodipodi:role="line"
         id="tspan2210"
         x="348.56781"
         y="437.71414">1vn6s</tspan></text>
    <path
       id="path2212"
       d="M 419.62124,425.45678 L 419.62124,428.88674 L 402.55215,428.88674 L 402.55215,434.47341 L 419.62124,434.47341 L 419.62124,437.90336 L 424.50149,434.78522 L 429.4053,431.66708 L 424.50149,428.57492 L 419.62124,425.45678 z "
       style="fill:yellow;fill-rule:evenodd;stroke:black;stroke-width:1.80902791px;stroke-linecap:butt;stroke-linejoin:miter;stroke-opacity:1" />
    <text
       xml:space="preserve"
       style="font-size:18.50265503px;font-style:normal;font-weight:normal;fill:black;fill-opacity:1;stroke:none;stroke-width:1px;stroke-linecap:butt;stroke-linejoin:miter;stroke-opacity:1;font-family:Arial"
       x="407.05814"
       y="415.37515"
       id="text2214"
       transform="scale(0.992441,1.007616)"><tspan
         sodipodi:role="line"
         id="tspan2216"
         x="407.05814"
         y="415.37515">R<tspan
   id="tspan2218"
   style="font-size:10.99984837px">1</tspan></tspan></text>
    <rect
       y="417.4668"
       x="434.75244"
       height="28.411825"
       width="71.350029"
       id="rect2220"
       style="fill:#2ad4ff;stroke:black;stroke-width:1.41716313;stroke-miterlimit:4;stroke-dasharray:2.83432632, 2.83432632;stroke-dashoffset:0;stroke-opacity:1" />
    <text
       transform="scale(1.005423,0.994607)"
       id="text2222"
       y="437.71512"
       x="451.17166"
       style="font-size:12.058568px;font-style:normal;font-weight:normal;fill:black;fill-opacity:1;stroke:none;stroke-width:1px;stroke-linecap:butt;stroke-linejoin:miter;stroke-opacity:1;font-family:Arial"
       xml:space="preserve"><tspan
         y="437.71512"
         x="451.17166"
         id="tspan2224"
         sodipodi:role="line">bernie</tspan></text>
    <path
       style="fill:aqua;fill-rule:evenodd;stroke:black;stroke-width:1.80902791px;stroke-linecap:butt;stroke-linejoin:miter;stroke-opacity:1"
       d="M 530.31193,425.45678 L 530.31193,428.88674 L 513.24285,428.88674 L 513.24285,434.47341 L 530.31193,434.47341 L 530.31193,437.90336 L 535.19218,434.78522 L 540.09599,431.66708 L 535.19218,428.57492 L 530.31193,425.45678 z "
       id="path2226" />
    <text
       transform="scale(0.992441,1.007616)"
       id="text2228"
       y="415.3761"
       x="522.6217"
       style="font-size:18.50277519px;font-style:normal;font-weight:normal;fill:black;fill-opacity:1;stroke:none;stroke-width:1px;stroke-linecap:butt;stroke-linejoin:miter;stroke-opacity:1;font-family:Arial"
       xml:space="preserve"><tspan
         y="415.3761"
         x="522.6217"
         id="tspan2230"
         sodipodi:role="line">H</tspan></text>
    <path
       style="fill:yellow;fill-rule:evenodd;stroke:black;stroke-width:1.80902791px;stroke-linecap:butt;stroke-linejoin:miter;stroke-opacity:1"
       d="M 621.04981,425.45678 L 621.04981,428.88674 L 603.98072,428.88674 L 603.98072,434.47341 L 621.04981,434.47341 L 621.04981,437.90336 L 625.93006,434.78522 L 630.83387,431.66708 L 625.93006,428.57492 L 621.04981,425.45678 z "
       id="path2232" />
    <text
       transform="scale(0.992441,1.007616)"
       id="text2234"
       y="415.37418"
       x="610.01428"
       style="font-size:18.50259209px;font-style:normal;font-weight:normal;fill:black;fill-opacity:1;stroke:none;stroke-width:1px;stroke-linecap:butt;stroke-linejoin:miter;stroke-opacity:1;font-family:Arial"
       xml:space="preserve"><tspan
         y="415.37418"
         x="610.01428"
         id="tspan2236"
         sodipodi:role="line">R<tspan
   id="tspan2238"
   style="font-size:10.99981976px">2</tspan></tspan></text>
    <rect
       style="fill:#2ad4ff;stroke:black;stroke-width:1.41716313;stroke-miterlimit:4;stroke-dasharray:2.83432632, 2.83432632;stroke-dashoffset:0;stroke-opacity:1"
       id="rect2240"
       width="71.350029"
       height="28.411825"
       x="636.18103"
       y="417.4668" />
    <text
       xml:space="preserve"
       style="font-size:12.05865383px;font-style:normal;font-weight:normal;fill:black;fill-opacity:1;stroke:none;stroke-width:1px;stroke-linecap:butt;stroke-linejoin:miter;stroke-opacity:1;font-family:Arial"
       x="652.80444"
       y="437.71774"
       id="text2242"
       transform="scale(1.005423,0.994607)"><tspan
         sodipodi:role="line"
         id="tspan2244"
         x="652.80444"
         y="437.71774">zurich</tspan></text>
    <rect
       y="417.4668"
       x="545.49023"
       height="28.411825"
       width="53.135723"
       id="rect2246"
       style="fill:#d5f6ff;stroke:black;stroke-width:1.4171629;stroke-miterlimit:4;stroke-dasharray:2.83432576, 2.83432576;stroke-dashoffset:0;stroke-opacity:1"
       ry="11.428572" />
    <text
       id="text2248"
       y="437.71469"
       x="550.90295"
       style="font-size:12.05854416px;font-style:normal;font-weight:normal;fill:black;fill-opacity:1;stroke:none;stroke-width:1px;stroke-linecap:butt;stroke-linejoin:miter;stroke-opacity:1;font-family:Arial"
       xml:space="preserve"
       transform="scale(1.005423,0.994607)"><tspan
         id="tspan2250"
         y="437.71469"
         x="550.90295"
         sodipodi:role="line">kolscx</tspan></text>
    <path
       id="path2252"
       d="M 731.7405,425.45678 L 731.7405,428.88674 L 714.67142,428.88674 L 714.67142,434.47341 L 731.7405,434.47341 L 731.7405,437.90336 L 736.62075,434.78522 L 741.52456,431.66708 L 736.62075,428.57492 L 731.7405,425.45678 z "
       style="fill:aqua;fill-rule:evenodd;stroke:black;stroke-width:1.80902791px;stroke-linecap:butt;stroke-linejoin:miter;stroke-opacity:1" />
    <text
       xml:space="preserve"
       style="font-size:18.50276947px;font-style:normal;font-weight:normal;fill:black;fill-opacity:1;stroke:none;stroke-width:1px;stroke-linecap:butt;stroke-linejoin:miter;stroke-opacity:1;font-family:Arial"
       x="725.58258"
       y="415.37601"
       id="text2254"
       transform="scale(0.992441,1.007616)"><tspan
         sodipodi:role="line"
         id="tspan2256"
         x="725.58258"
         y="415.37601">H</tspan></text>
    <path
       id="path2258"
       d="M 822.47838,425.45678 L 822.47838,428.88674 L 805.40929,428.88674 L 805.40929,434.47341 L 822.47838,434.47341 L 822.47838,437.90336 L 827.35863,434.78522 L 832.26244,431.66708 L 827.35863,428.57492 L 822.47838,425.45678 z "
       style="fill:yellow;fill-rule:evenodd;stroke:black;stroke-width:1.80902791px;stroke-linecap:butt;stroke-linejoin:miter;stroke-opacity:1" />
    <text
       xml:space="preserve"
       style="font-size:18.50258636px;font-style:normal;font-weight:normal;fill:black;fill-opacity:1;stroke:none;stroke-width:1px;stroke-linecap:butt;stroke-linejoin:miter;stroke-opacity:1;font-family:Arial"
       x="812.97424"
       y="415.37408"
       id="text2260"
       transform="scale(0.992441,1.007616)"><tspan
         sodipodi:role="line"
         id="tspan2262"
         x="812.97424"
         y="415.37408">R<tspan
   id="tspan2264"
   style="font-size:10.99987984px">3</tspan></tspan></text>
    <rect
       y="417.4668"
       x="837.60962"
       height="28.411825"
       width="71.350029"
       id="rect2266"
       style="fill:#2ad4ff;stroke:black;stroke-width:1.41716313;stroke-miterlimit:4;stroke-dasharray:2.83432632, 2.83432632;stroke-dashoffset:0;stroke-opacity:1" />
    <text
       transform="scale(1.005423,0.994607)"
       id="text2268"
       y="437.71634"
       x="845.9007"
       style="font-size:12.05861092px;font-style:normal;font-weight:normal;fill:black;fill-opacity:1;stroke:none;stroke-width:1px;stroke-linecap:butt;stroke-linejoin:miter;stroke-opacity:1;font-family:Arial"
       xml:space="preserve"><tspan
         y="437.71634"
         x="845.9007"
         id="tspan2270"
         sodipodi:role="line">myname</tspan></text>
    <rect
       ry="11.428572"
       style="fill:#d5f6ff;stroke:black;stroke-width:1.4171629;stroke-miterlimit:4;stroke-dasharray:2.83432576, 2.83432576;stroke-dashoffset:0;stroke-opacity:1"
       id="rect2272"
       width="53.135723"
       height="28.411825"
       x="746.91882"
       y="417.4668" />
    <text
       transform="scale(1.005423,0.994607)"
       xml:space="preserve"
       style="font-size:12.0585537px;font-style:normal;font-weight:normal;fill:black;fill-opacity:1;stroke:none;stroke-width:1px;stroke-linecap:butt;stroke-linejoin:miter;stroke-opacity:1;font-family:Arial"
       x="753.23969"
       y="437.71494"
       id="text2274"><tspan
         sodipodi:role="line"
         x="753.23969"
         y="437.71494"
         id="tspan2276">8ntpy</tspan></text>
    <rect
       style="fill:#fac;stroke:black;stroke-width:1.41716313;stroke-miterlimit:4;stroke-dasharray:2.83432632, 2.83432632;stroke-dashoffset:0;stroke-opacity:1"
       id="rect2278"
       width="71.350029"
       height="28.411825"
       x="236.77499"
       y="557.27899" />
    <text
       xml:space="preserve"
       style="font-size:12.05866814px;font-style:normal;font-weight:normal;fill:black;fill-opacity:1;stroke:none;stroke-width:1px;stroke-linecap:butt;stroke-linejoin:miter;stroke-opacity:1;font-family:Arial"
       x="247.5269"
       y="578.29108"
       id="text2280"
       transform="scale(1.005423,0.994607)"><tspan
         sodipodi:role="line"
         id="tspan2282"
         x="247.5269"
         y="578.29108">passwd</tspan></text>
    <path
       id="path2284"
       d="M 330.95085,565.26898 L 330.95085,568.69894 L 313.88177,568.69894 L 313.88177,574.28561 L 330.95085,574.28561 L 330.95085,577.71556 L 335.8311,574.59742 L 340.73491,571.47928 L 335.8311,568.38712 L 330.95085,565.26898 z "
       style="fill:aqua;fill-rule:evenodd;stroke:black;stroke-width:1.80902791px;stroke-linecap:butt;stroke-linejoin:miter;stroke-opacity:1" />
    <text
       xml:space="preserve"
       style="font-size:18.50241852px;font-style:normal;font-weight:normal;fill:black;fill-opacity:1;stroke:none;stroke-width:1px;stroke-linecap:butt;stroke-linejoin:miter;stroke-opacity:1;font-family:Arial"
       x="320.34811"
       y="554.12604"
       id="text2286"
       transform="scale(0.992441,1.007616)"><tspan
         sodipodi:role="line"
         id="tspan2288"
         x="320.34811"
         y="554.12604">H</tspan></text>
    <rect
       y="557.27899"
       x="346.08194"
       height="28.411825"
       width="53.135723"
       id="rect2290"
       style="fill:#ffd5f6;stroke:black;stroke-width:1.4171629;stroke-miterlimit:4;stroke-dasharray:2.83432576, 2.83432576;stroke-dashoffset:0;stroke-opacity:1"
       ry="11.428572" />
    <text
       id="text2292"
       y="578.29156"
       x="354.55994"
       style="font-size:12.05869198px;font-style:normal;font-weight:normal;fill:black;fill-opacity:1;stroke:none;stroke-width:1px;stroke-linecap:butt;stroke-linejoin:miter;stroke-opacity:1;font-family:Arial"
       xml:space="preserve"
       transform="scale(1.005423,0.994607)"><tspan
         y="578.29156"
         x="354.55994"
         id="tspan2294"
         sodipodi:role="line">dlcm4</tspan></text>
    <path
       style="fill:yellow;fill-rule:evenodd;stroke:black;stroke-width:1.80902791px;stroke-linecap:butt;stroke-linejoin:miter;stroke-opacity:1"
       d="M 421.64155,565.26898 L 421.64155,568.69894 L 404.57246,568.69894 L 404.57246,574.28561 L 421.64155,574.28561 L 421.64155,577.71556 L 426.5218,574.59742 L 431.42561,571.47928 L 426.5218,568.38712 L 421.64155,565.26898 z "
       id="path2296" />
    <text
       transform="scale(0.992441,1.007616)"
       id="text2298"
       y="554.12598"
       x="409.08981"
       style="font-size:18.5024662px;font-style:normal;font-weight:normal;fill:black;fill-opacity:1;stroke:none;stroke-width:1px;stroke-linecap:butt;stroke-linejoin:miter;stroke-opacity:1;font-family:Arial"
       xml:space="preserve"><tspan
         y="554.12598"
         x="409.08981"
         id="tspan2300"
         sodipodi:role="line">R<tspan
   style="font-size:10.99975395px"
   id="tspan2302">1</tspan></tspan></text>
    <rect
       style="fill:#fac;stroke:black;stroke-width:1.41716313;stroke-miterlimit:4;stroke-dasharray:2.83432632, 2.83432632;stroke-dashoffset:0;stroke-opacity:1"
       id="rect2304"
       width="71.350029"
       height="28.411825"
       x="436.77274"
       y="557.27899" />
    <text
       xml:space="preserve"
       style="font-size:12.05872059px;font-style:normal;font-weight:normal;fill:black;fill-opacity:1;stroke:none;stroke-width:1px;stroke-linecap:butt;stroke-linejoin:miter;stroke-opacity:1;font-family:Arial"
       x="451.19678"
       y="578.29199"
       id="text2306"
       transform="scale(1.005423,0.994607)"><tspan
         sodipodi:role="line"
         id="tspan2308"
         x="451.19678"
         y="578.29199">culture</tspan></text>
    <path
       id="path2310"
       d="M 532.33224,565.26898 L 532.33224,568.69894 L 515.26316,568.69894 L 515.26316,574.28561 L 532.33224,574.28561 L 532.33224,577.71556 L 537.21249,574.59742 L 542.1163,571.47928 L 537.21249,568.38712 L 532.33224,565.26898 z "
       style="fill:aqua;fill-rule:evenodd;stroke:black;stroke-width:1.80902791px;stroke-linecap:butt;stroke-linejoin:miter;stroke-opacity:1" />
    <text
       xml:space="preserve"
       style="font-size:18.50258636px;font-style:normal;font-weight:normal;fill:black;fill-opacity:1;stroke:none;stroke-width:1px;stroke-linecap:butt;stroke-linejoin:miter;stroke-opacity:1;font-family:Arial"
       x="524.65234"
       y="554.12695"
       id="text2312"
       transform="scale(0.992441,1.007616)"><tspan
         sodipodi:role="line"
         id="tspan2314"
         x="524.65234"
         y="554.12695">H</tspan></text>
    <path
       id="path2316"
       d="M 623.07012,565.26898 L 623.07012,568.69894 L 606.00103,568.69894 L 606.00103,574.28561 L 623.07012,574.28561 L 623.07012,577.71556 L 627.95037,574.59742 L 632.85418,571.47928 L 627.95037,568.38712 L 623.07012,565.26898 z "
       style="fill:yellow;fill-rule:evenodd;stroke:black;stroke-width:1.80902791px;stroke-linecap:butt;stroke-linejoin:miter;stroke-opacity:1" />
    <text
       xml:space="preserve"
       style="font-size:18.50240326px;font-style:normal;font-weight:normal;fill:black;fill-opacity:1;stroke:none;stroke-width:1px;stroke-linecap:butt;stroke-linejoin:miter;stroke-opacity:1;font-family:Arial"
       x="612.04395"
       y="554.125"
       id="text2318"
       transform="scale(0.992441,1.007616)"><tspan
         sodipodi:role="line"
         id="tspan2320"
         x="612.04395"
         y="554.125">R<tspan
   style="font-size:10.99972534px"
   id="tspan2322">2</tspan></tspan></text>
    <rect
       y="557.27899"
       x="638.20135"
       height="28.411825"
       width="71.350029"
       id="rect2324"
       style="fill:#fac;stroke:black;stroke-width:1.41716313;stroke-miterlimit:4;stroke-dasharray:2.83432632, 2.83432632;stroke-dashoffset:0;stroke-opacity:1" />
    <text
       transform="scale(1.005423,0.994607)"
       id="text2326"
       y="578.29382"
       x="651.55194"
       style="font-size:12.05877304px;font-style:normal;font-weight:normal;fill:black;fill-opacity:1;stroke:none;stroke-width:1px;stroke-linecap:butt;stroke-linejoin:miter;stroke-opacity:1;font-family:Arial"
       xml:space="preserve"><tspan
         y="578.29382"
         x="651.55194"
         id="tspan2328"
         sodipodi:role="line">crypto</tspan></text>
    <rect
       ry="11.428572"
       style="fill:#ffd5f6;stroke:black;stroke-width:1.4171629;stroke-miterlimit:4;stroke-dasharray:2.83432576, 2.83432576;stroke-dashoffset:0;stroke-opacity:1"
       id="rect2330"
       width="53.135723"
       height="28.411825"
       x="547.51056"
       y="557.27899" />
    <text
       transform="scale(1.005423,0.994607)"
       xml:space="preserve"
       style="font-size:12.05870152px;font-style:normal;font-weight:normal;fill:black;fill-opacity:1;stroke:none;stroke-width:1px;stroke-linecap:butt;stroke-linejoin:miter;stroke-opacity:1;font-family:Arial"
       x="552.9184"
       y="578.29181"
       id="text2332"><tspan
         sodipodi:role="line"
         x="552.9184"
         y="578.29181"
         id="tspan2334">re3xes</tspan></text>
    <path
       style="fill:aqua;fill-rule:evenodd;stroke:black;stroke-width:1.80902791px;stroke-linecap:butt;stroke-linejoin:miter;stroke-opacity:1"
       d="M 733.76081,565.26898 L 733.76081,568.69894 L 716.69173,568.69894 L 716.69173,574.28561 L 733.76081,574.28561 L 733.76081,577.71556 L 738.64106,574.59742 L 743.54487,571.47928 L 738.64106,568.38712 L 733.76081,565.26898 z "
       id="path2336" />
    <text
       transform="scale(0.992441,1.007616)"
       id="text2338"
       y="554.12683"
       x="727.61218"
       style="font-size:18.50258064px;font-style:normal;font-weight:normal;fill:black;fill-opacity:1;stroke:none;stroke-width:1px;stroke-linecap:butt;stroke-linejoin:miter;stroke-opacity:1;font-family:Arial"
       xml:space="preserve"><tspan
         y="554.12683"
         x="727.61218"
         id="tspan2340"
         sodipodi:role="line">H</tspan></text>
    <path
       style="fill:yellow;fill-rule:evenodd;stroke:black;stroke-width:1.80902791px;stroke-linecap:butt;stroke-linejoin:miter;stroke-opacity:1"
       d="M 824.49869,565.26898 L 824.49869,568.69894 L 807.4296,568.69894 L 807.4296,574.28561 L 824.49869,574.28561 L 824.49869,577.71556 L 829.37894,574.59742 L 834.28275,571.47928 L 829.37894,568.38712 L 824.49869,565.26898 z "
       id="path2342" />
    <text
       transform="scale(0.992441,1.007616)"
       id="text2344"
       y="554.12494"
       x="815.00189"
       style="font-size:18.50239754px;font-style:normal;font-weight:normal;fill:black;fill-opacity:1;stroke:none;stroke-width:1px;stroke-linecap:butt;stroke-linejoin:miter;stroke-opacity:1;font-family:Arial"
       xml:space="preserve"><tspan
         y="554.12494"
         x="815.00189"
         id="tspan2346"
         sodipodi:role="line">R<tspan
   style="font-size:10.99978542px"
   id="tspan2348">3</tspan></tspan></text>
    <rect
       style="fill:#fac;stroke:black;stroke-width:1.41716313;stroke-miterlimit:4;stroke-dasharray:2.83432632, 2.83432632;stroke-dashoffset:0;stroke-opacity:1"
       id="rect2350"
       width="71.350029"
       height="28.411825"
       x="839.62994"
       y="557.27899" />
    <text
       xml:space="preserve"
       style="font-size:12.05877781px;font-style:normal;font-weight:normal;fill:black;fill-opacity:1;stroke:none;stroke-width:1px;stroke-linecap:butt;stroke-linejoin:miter;stroke-opacity:1;font-family:Arial"
       x="851.89929"
       y="578.29395"
       id="text2352"
       transform="scale(1.005423,0.994607)"><tspan
         sodipodi:role="line"
         id="tspan2354"
         x="851.89929"
         y="578.29395">linux23</tspan></text>
    <rect
       y="557.27899"
       x="748.93915"
       height="28.411825"
       width="53.135723"
       id="rect2356"
       style="fill:#ffd5f6;stroke:black;stroke-width:1.4171629;stroke-miterlimit:4;stroke-dasharray:2.83432576, 2.83432576;stroke-dashoffset:0;stroke-opacity:1"
       ry="11.428572" />
    <text
       id="text2358"
       y="578.29205"
       x="755.25916"
       style="font-size:12.05871105px;font-style:normal;font-weight:normal;fill:black;fill-opacity:1;stroke:none;stroke-width:1px;stroke-linecap:butt;stroke-linejoin:miter;stroke-opacity:1;font-family:Arial"
       xml:space="preserve"
       transform="scale(1.005423,0.994607)"><tspan
         id="tspan2360"
         y="578.29205"
         x="755.25916"
         sodipodi:role="line">1tik0</tspan></text>
    <path
       style="font-size:12px;font-style:normal;font-weight:normal;fill:black;fill-opacity:1;stroke:none;stroke-width:1px;stroke-linecap:butt;stroke-linejoin:miter;stroke-opacity:1;font-family:Arial"
       d="M 270.87755,449.907 L 270.87755,451.46612 L 269.38926,451.46612 L 269.38926,449.907 L 270.87755,449.907 z M 270.87755,454.72478 L 270.87755,456.2839 L 269.38926,456.2839 L 269.38926,454.72478 L 270.87755,454.72478 z M 270.87755,459.54255 L 270.87755,461.10168 L 269.38926,461.10168 L 269.38926,459.54255 L 270.87755,459.54255 z M 270.87755,464.36033 L 270.87755,465.91945 L 269.38926,465.91945 L 269.38926,464.36033 L 270.87755,464.36033 z M 270.87755,469.17812 L 270.87755,470.73723 L 269.38926,470.73723 L 269.38926,469.17812 L 270.87755,469.17812 z M 270.87755,473.99589 L 270.87755,475.55502 L 269.38926,475.55502 L 269.38926,473.99589 L 270.87755,473.99589 z M 270.87755,478.81367 L 270.87755,480.37279 L 269.38926,480.37279 L 269.38926,478.81367 L 270.87755,478.81367 z M 270.87755,483.63145 L 270.87755,485.19057 L 269.38926,485.19057 L 269.38926,483.63145 L 270.87755,483.63145 z M 270.87755,488.44924 L 270.87755,490.00835 L 269.38926,490.00835 L 269.38926,488.44924 L 270.87755,488.44924 z M 270.87755,493.26701 L 270.87755,494.82614 L 269.38926,494.82614 L 269.38926,493.26701 L 270.87755,493.26701 z M 270.87755,498.08479 L 270.87755,499.64391 L 269.38926,499.64391 L 269.38926,498.08479 L 270.87755,498.08479 z M 270.87755,502.90257 L 270.87755,504.46169 L 269.38926,504.46169 L 269.38926,502.90257 L 270.87755,502.90257 z M 270.87755,507.72036 L 270.87755,509.27947 L 269.38926,509.27947 L 269.38926,507.72036 L 270.87755,507.72036 z M 270.87755,512.53813 L 270.87755,514.09726 L 269.38926,514.09726 L 269.38926,512.53813 L 270.87755,512.53813 z M 270.87755,517.35591 L 270.87755,518.91503 L 269.38926,518.91503 L 269.38926,517.35591 L 270.87755,517.35591 z M 270.87755,522.17368 L 270.87755,523.73281 L 269.38926,523.73281 L 269.38926,522.17368 L 270.87755,522.17368 z M 270.87755,526.99146 L 270.87755,528.55058 L 269.38926,528.55058 L 269.38926,526.99146 L 270.87755,526.99146 z M 270.87755,531.80925 L 270.87755,533.36838 L 269.38926,533.36838 L 269.38926,531.80925 L 270.87755,531.80925 z M 270.87755,536.62703 L 270.87755,538.18615 L 269.38926,538.18615 L 269.38926,536.62703 L 270.87755,536.62703 z M 270.87755,541.4448 L 270.87755,543.00393 L 269.38926,543.00393 L 269.38926,541.4448 L 270.87755,541.4448 z M 270.87755,546.26258 L 270.87755,547.8217 L 269.38926,547.8217 L 269.38926,546.26258 L 270.87755,546.26258 z M 270.87755,551.08036 L 270.87755,552.6395 L 269.38926,552.6395 L 269.38926,551.08036 L 270.87755,551.08036 z "
       id="text2507"
       sodipodi:nodetypes="cccccccccccccccccccccccccccccccccccccccccccccccccccccccccccccccccccccccccccccccccccccccccccccccccccccccccccccc" />
    <path
       sodipodi:nodetypes="cccccccccccccccccccccccccccccccccccccccccccccccccccccccccccccccccccccccccccccccccccccccccccccccccccccccccccccc"
       id="path2512"
       d="M 371.38773,449.907 L 371.38773,451.46612 L 369.89944,451.46612 L 369.89944,449.907 L 371.38773,449.907 z M 371.38773,454.72478 L 371.38773,456.2839 L 369.89944,456.2839 L 369.89944,454.72478 L 371.38773,454.72478 z M 371.38773,459.54255 L 371.38773,461.10168 L 369.89944,461.10168 L 369.89944,459.54255 L 371.38773,459.54255 z M 371.38773,464.36033 L 371.38773,465.91945 L 369.89944,465.91945 L 369.89944,464.36033 L 371.38773,464.36033 z M 371.38773,469.17812 L 371.38773,470.73723 L 369.89944,470.73723 L 369.89944,469.17812 L 371.38773,469.17812 z M 371.38773,473.99589 L 371.38773,475.55502 L 369.89944,475.55502 L 369.89944,473.99589 L 371.38773,473.99589 z M 371.38773,478.81367 L 371.38773,480.37279 L 369.89944,480.37279 L 369.89944,478.81367 L 371.38773,478.81367 z M 371.38773,483.63145 L 371.38773,485.19057 L 369.89944,485.19057 L 369.89944,483.63145 L 371.38773,483.63145 z M 371.38773,488.44924 L 371.38773,490.00835 L 369.89944,490.00835 L 369.89944,488.44924 L 371.38773,488.44924 z M 371.38773,493.26701 L 371.38773,494.82614 L 369.89944,494.82614 L 369.89944,493.26701 L 371.38773,493.26701 z M 371.38773,498.08479 L 371.38773,499.64391 L 369.89944,499.64391 L 369.89944,498.08479 L 371.38773,498.08479 z M 371.38773,502.90257 L 371.38773,504.46169 L 369.89944,504.46169 L 369.89944,502.90257 L 371.38773,502.90257 z M 371.38773,507.72036 L 371.38773,509.27947 L 369.89944,509.27947 L 369.89944,507.72036 L 371.38773,507.72036 z M 371.38773,512.53813 L 371.38773,514.09726 L 369.89944,514.09726 L 369.89944,512.53813 L 371.38773,512.53813 z M 371.38773,517.35591 L 371.38773,518.91503 L 369.89944,518.91503 L 369.89944,517.35591 L 371.38773,517.35591 z M 371.38773,522.17368 L 371.38773,523.73281 L 369.89944,523.73281 L 369.89944,522.17368 L 371.38773,522.17368 z M 371.38773,526.99146 L 371.38773,528.55058 L 369.89944,528.55058 L 369.89944,526.99146 L 371.38773,526.99146 z M 371.38773,531.80925 L 371.38773,533.36838 L 369.89944,533.36838 L 369.89944,531.80925 L 371.38773,531.80925 z M 371.38773,536.62703 L 371.38773,538.18615 L 369.89944,538.18615 L 369.89944,536.62703 L 371.38773,536.62703 z M 371.38773,541.4448 L 371.38773,543.00393 L 369.89944,543.00393 L 369.89944,541.4448 L 371.38773,541.4448 z M 371.38773,546.26258 L 371.38773,547.8217 L 369.89944,547.8217 L 369.89944,546.26258 L 371.38773,546.26258 z M 371.38773,551.08036 L 371.38773,552.6395 L 369.89944,552.6395 L 369.89944,551.08036 L 371.38773,551.08036 z "
       style="font-size:12px;font-style:normal;font-weight:normal;fill:black;fill-opacity:1;stroke:none;stroke-width:1px;stroke-linecap:butt;stroke-linejoin:miter;stroke-opacity:1;font-family:Arial" />
    <path
       style="font-size:12px;font-style:normal;font-weight:normal;fill:black;fill-opacity:1;stroke:none;stroke-width:1px;stroke-linecap:butt;stroke-linejoin:miter;stroke-opacity:1;font-family:Arial"
       d="M 471.89791,449.907 L 471.89791,451.46612 L 470.40962,451.46612 L 470.40962,449.907 L 471.89791,449.907 z M 471.89791,454.72478 L 471.89791,456.2839 L 470.40962,456.2839 L 470.40962,454.72478 L 471.89791,454.72478 z M 471.89791,459.54255 L 471.89791,461.10168 L 470.40962,461.10168 L 470.40962,459.54255 L 471.89791,459.54255 z M 471.89791,464.36033 L 471.89791,465.91945 L 470.40962,465.91945 L 470.40962,464.36033 L 471.89791,464.36033 z M 471.89791,469.17812 L 471.89791,470.73723 L 470.40962,470.73723 L 470.40962,469.17812 L 471.89791,469.17812 z M 471.89791,473.99589 L 471.89791,475.55502 L 470.40962,475.55502 L 470.40962,473.99589 L 471.89791,473.99589 z M 471.89791,478.81367 L 471.89791,480.37279 L 470.40962,480.37279 L 470.40962,478.81367 L 471.89791,478.81367 z M 471.89791,483.63145 L 471.89791,485.19057 L 470.40962,485.19057 L 470.40962,483.63145 L 471.89791,483.63145 z M 471.89791,488.44924 L 471.89791,490.00835 L 470.40962,490.00835 L 470.40962,488.44924 L 471.89791,488.44924 z M 471.89791,493.26701 L 471.89791,494.82614 L 470.40962,494.82614 L 470.40962,493.26701 L 471.89791,493.26701 z M 471.89791,498.08479 L 471.89791,499.64391 L 470.40962,499.64391 L 470.40962,498.08479 L 471.89791,498.08479 z M 471.89791,502.90257 L 471.89791,504.46169 L 470.40962,504.46169 L 470.40962,502.90257 L 471.89791,502.90257 z M 471.89791,507.72036 L 471.89791,509.27947 L 470.40962,509.27947 L 470.40962,507.72036 L 471.89791,507.72036 z M 471.89791,512.53813 L 471.89791,514.09726 L 470.40962,514.09726 L 470.40962,512.53813 L 471.89791,512.53813 z M 471.89791,517.35591 L 471.89791,518.91503 L 470.40962,518.91503 L 470.40962,517.35591 L 471.89791,517.35591 z M 471.89791,522.17368 L 471.89791,523.73281 L 470.40962,523.73281 L 470.40962,522.17368 L 471.89791,522.17368 z M 471.89791,526.99146 L 471.89791,528.55058 L 470.40962,528.55058 L 470.40962,526.99146 L 471.89791,526.99146 z M 471.89791,531.80925 L 471.89791,533.36838 L 470.40962,533.36838 L 470.40962,531.80925 L 471.89791,531.80925 z M 471.89791,536.62703 L 471.89791,538.18615 L 470.40962,538.18615 L 470.40962,536.62703 L 471.89791,536.62703 z M 471.89791,541.4448 L 471.89791,543.00393 L 470.40962,543.00393 L 470.40962,541.4448 L 471.89791,541.4448 z M 471.89791,546.26258 L 471.89791,547.8217 L 470.40962,547.8217 L 470.40962,546.26258 L 471.89791,546.26258 z M 471.89791,551.08036 L 471.89791,552.6395 L 470.40962,552.6395 L 470.40962,551.08036 L 471.89791,551.08036 z "
       id="path2514"
       sodipodi:nodetypes="cccccccccccccccccccccccccccccccccccccccccccccccccccccccccccccccccccccccccccccccccccccccccccccccccccccccccccccc" />
    <path
       sodipodi:nodetypes="cccccccccccccccccccccccccccccccccccccccccccccccccccccccccccccccccccccccccccccccccccccccccccccccccccccccccccccc"
       id="path2516"
       d="M 573.92332,449.907 L 573.92332,451.46612 L 572.43503,451.46612 L 572.43503,449.907 L 573.92332,449.907 z M 573.92332,454.72478 L 573.92332,456.2839 L 572.43503,456.2839 L 572.43503,454.72478 L 573.92332,454.72478 z M 573.92332,459.54255 L 573.92332,461.10168 L 572.43503,461.10168 L 572.43503,459.54255 L 573.92332,459.54255 z M 573.92332,464.36033 L 573.92332,465.91945 L 572.43503,465.91945 L 572.43503,464.36033 L 573.92332,464.36033 z M 573.92332,469.17812 L 573.92332,470.73723 L 572.43503,470.73723 L 572.43503,469.17812 L 573.92332,469.17812 z M 573.92332,473.99589 L 573.92332,475.55502 L 572.43503,475.55502 L 572.43503,473.99589 L 573.92332,473.99589 z M 573.92332,478.81367 L 573.92332,480.37279 L 572.43503,480.37279 L 572.43503,478.81367 L 573.92332,478.81367 z M 573.92332,483.63145 L 573.92332,485.19057 L 572.43503,485.19057 L 572.43503,483.63145 L 573.92332,483.63145 z M 573.92332,488.44924 L 573.92332,490.00835 L 572.43503,490.00835 L 572.43503,488.44924 L 573.92332,488.44924 z M 573.92332,493.26701 L 573.92332,494.82614 L 572.43503,494.82614 L 572.43503,493.26701 L 573.92332,493.26701 z M 573.92332,498.08479 L 573.92332,499.64391 L 572.43503,499.64391 L 572.43503,498.08479 L 573.92332,498.08479 z M 573.92332,502.90257 L 573.92332,504.46169 L 572.43503,504.46169 L 572.43503,502.90257 L 573.92332,502.90257 z M 573.92332,507.72036 L 573.92332,509.27947 L 572.43503,509.27947 L 572.43503,507.72036 L 573.92332,507.72036 z M 573.92332,512.53813 L 573.92332,514.09726 L 572.43503,514.09726 L 572.43503,512.53813 L 573.92332,512.53813 z M 573.92332,517.35591 L 573.92332,518.91503 L 572.43503,518.91503 L 572.43503,517.35591 L 573.92332,517.35591 z M 573.92332,522.17368 L 573.92332,523.73281 L 572.43503,523.73281 L 572.43503,522.17368 L 573.92332,522.17368 z M 573.92332,526.99146 L 573.92332,528.55058 L 572.43503,528.55058 L 572.43503,526.99146 L 573.92332,526.99146 z M 573.92332,531.80925 L 573.92332,533.36838 L 572.43503,533.36838 L 572.43503,531.80925 L 573.92332,531.80925 z M 573.92332,536.62703 L 573.92332,538.18615 L 572.43503,538.18615 L 572.43503,536.62703 L 573.92332,536.62703 z M 573.92332,541.4448 L 573.92332,543.00393 L 572.43503,543.00393 L 572.43503,541.4448 L 573.92332,541.4448 z M 573.92332,546.26258 L 573.92332,547.8217 L 572.43503,547.8217 L 572.43503,546.26258 L 573.92332,546.26258 z M 573.92332,551.08036 L 573.92332,552.6395 L 572.43503,552.6395 L 572.43503,551.08036 L 573.92332,551.08036 z "
       style="font-size:12px;font-style:normal;font-weight:normal;fill:black;fill-opacity:1;stroke:none;stroke-width:1px;stroke-linecap:butt;stroke-linejoin:miter;stroke-opacity:1;font-family:Arial" />
    <path
       style="font-size:12px;font-style:normal;font-weight:normal;fill:black;fill-opacity:1;stroke:none;stroke-width:1px;stroke-linecap:butt;stroke-linejoin:miter;stroke-opacity:1;font-family:Arial"
       d="M 671.90812,449.907 L 671.90812,451.46612 L 670.41983,451.46612 L 670.41983,449.907 L 671.90812,449.907 z M 671.90812,454.72478 L 671.90812,456.2839 L 670.41983,456.2839 L 670.41983,454.72478 L 671.90812,454.72478 z M 671.90812,459.54255 L 671.90812,461.10168 L 670.41983,461.10168 L 670.41983,459.54255 L 671.90812,459.54255 z M 671.90812,464.36033 L 671.90812,465.91945 L 670.41983,465.91945 L 670.41983,464.36033 L 671.90812,464.36033 z M 671.90812,469.17812 L 671.90812,470.73723 L 670.41983,470.73723 L 670.41983,469.17812 L 671.90812,469.17812 z M 671.90812,473.99589 L 671.90812,475.55502 L 670.41983,475.55502 L 670.41983,473.99589 L 671.90812,473.99589 z M 671.90812,478.81367 L 671.90812,480.37279 L 670.41983,480.37279 L 670.41983,478.81367 L 671.90812,478.81367 z M 671.90812,483.63145 L 671.90812,485.19057 L 670.41983,485.19057 L 670.41983,483.63145 L 671.90812,483.63145 z M 671.90812,488.44924 L 671.90812,490.00835 L 670.41983,490.00835 L 670.41983,488.44924 L 671.90812,488.44924 z M 671.90812,493.26701 L 671.90812,494.82614 L 670.41983,494.82614 L 670.41983,493.26701 L 671.90812,493.26701 z M 671.90812,498.08479 L 671.90812,499.64391 L 670.41983,499.64391 L 670.41983,498.08479 L 671.90812,498.08479 z M 671.90812,502.90257 L 671.90812,504.46169 L 670.41983,504.46169 L 670.41983,502.90257 L 671.90812,502.90257 z M 671.90812,507.72036 L 671.90812,509.27947 L 670.41983,509.27947 L 670.41983,507.72036 L 671.90812,507.72036 z M 671.90812,512.53813 L 671.90812,514.09726 L 670.41983,514.09726 L 670.41983,512.53813 L 671.90812,512.53813 z M 671.90812,517.35591 L 671.90812,518.91503 L 670.41983,518.91503 L 670.41983,517.35591 L 671.90812,517.35591 z M 671.90812,522.17368 L 671.90812,523.73281 L 670.41983,523.73281 L 670.41983,522.17368 L 671.90812,522.17368 z M 671.90812,526.99146 L 671.90812,528.55058 L 670.41983,528.55058 L 670.41983,526.99146 L 671.90812,526.99146 z M 671.90812,531.80925 L 671.90812,533.36838 L 670.41983,533.36838 L 670.41983,531.80925 L 671.90812,531.80925 z M 671.90812,536.62703 L 671.90812,538.18615 L 670.41983,538.18615 L 670.41983,536.62703 L 671.90812,536.62703 z M 671.90812,541.4448 L 671.90812,543.00393 L 670.41983,543.00393 L 670.41983,541.4448 L 671.90812,541.4448 z M 671.90812,546.26258 L 671.90812,547.8217 L 670.41983,547.8217 L 670.41983,546.26258 L 671.90812,546.26258 z M 671.90812,551.08036 L 671.90812,552.6395 L 670.41983,552.6395 L 670.41983,551.08036 L 671.90812,551.08036 z "
       id="path2518"
       sodipodi:nodetypes="cccccccccccccccccccccccccccccccccccccccccccccccccccccccccccccccccccccccccccccccccccccccccccccccccccccccccccccc" />
    <path
       sodipodi:nodetypes="cccccccccccccccccccccccccccccccccccccccccccccccccccccccccccccccccccccccccccccccccccccccccccccccccccccccccccccc"
       id="path2520"
       d="M 774.94368,449.907 L 774.94368,451.46612 L 773.45539,451.46612 L 773.45539,449.907 L 774.94368,449.907 z M 774.94368,454.72478 L 774.94368,456.2839 L 773.45539,456.2839 L 773.45539,454.72478 L 774.94368,454.72478 z M 774.94368,459.54255 L 774.94368,461.10168 L 773.45539,461.10168 L 773.45539,459.54255 L 774.94368,459.54255 z M 774.94368,464.36033 L 774.94368,465.91945 L 773.45539,465.91945 L 773.45539,464.36033 L 774.94368,464.36033 z M 774.94368,469.17812 L 774.94368,470.73723 L 773.45539,470.73723 L 773.45539,469.17812 L 774.94368,469.17812 z M 774.94368,473.99589 L 774.94368,475.55502 L 773.45539,475.55502 L 773.45539,473.99589 L 774.94368,473.99589 z M 774.94368,478.81367 L 774.94368,480.37279 L 773.45539,480.37279 L 773.45539,478.81367 L 774.94368,478.81367 z M 774.94368,483.63145 L 774.94368,485.19057 L 773.45539,485.19057 L 773.45539,483.63145 L 774.94368,483.63145 z M 774.94368,488.44924 L 774.94368,490.00835 L 773.45539,490.00835 L 773.45539,488.44924 L 774.94368,488.44924 z M 774.94368,493.26701 L 774.94368,494.82614 L 773.45539,494.82614 L 773.45539,493.26701 L 774.94368,493.26701 z M 774.94368,498.08479 L 774.94368,499.64391 L 773.45539,499.64391 L 773.45539,498.08479 L 774.94368,498.08479 z M 774.94368,502.90257 L 774.94368,504.46169 L 773.45539,504.46169 L 773.45539,502.90257 L 774.94368,502.90257 z M 774.94368,507.72036 L 774.94368,509.27947 L 773.45539,509.27947 L 773.45539,507.72036 L 774.94368,507.72036 z M 774.94368,512.53813 L 774.94368,514.09726 L 773.45539,514.09726 L 773.45539,512.53813 L 774.94368,512.53813 z M 774.94368,517.35591 L 774.94368,518.91503 L 773.45539,518.91503 L 773.45539,517.35591 L 774.94368,517.35591 z M 774.94368,522.17368 L 774.94368,523.73281 L 773.45539,523.73281 L 773.45539,522.17368 L 774.94368,522.17368 z M 774.94368,526.99146 L 774.94368,528.55058 L 773.45539,528.55058 L 773.45539,526.99146 L 774.94368,526.99146 z M 774.94368,531.80925 L 774.94368,533.36838 L 773.45539,533.36838 L 773.45539,531.80925 L 774.94368,531.80925 z M 774.94368,536.62703 L 774.94368,538.18615 L 773.45539,538.18615 L 773.45539,536.62703 L 774.94368,536.62703 z M 774.94368,541.4448 L 774.94368,543.00393 L 773.45539,543.00393 L 773.45539,541.4448 L 774.94368,541.4448 z M 774.94368,546.26258 L 774.94368,547.8217 L 773.45539,547.8217 L 773.45539,546.26258 L 774.94368,546.26258 z M 774.94368,551.08036 L 774.94368,552.6395 L 773.45539,552.6395 L 773.45539,551.08036 L 774.94368,551.08036 z "
       style="font-size:12px;font-style:normal;font-weight:normal;fill:black;fill-opacity:1;stroke:none;stroke-width:1px;stroke-linecap:butt;stroke-linejoin:miter;stroke-opacity:1;font-family:Arial" />
    <path
       style="font-size:12px;font-style:normal;font-weight:normal;fill:black;fill-opacity:1;stroke:none;stroke-width:1px;stroke-linecap:butt;stroke-linejoin:miter;stroke-opacity:1;font-family:Arial"
       d="M 874.90817,449.907 L 874.90817,451.46612 L 873.41988,451.46612 L 873.41988,449.907 L 874.90817,449.907 z M 874.90817,454.72478 L 874.90817,456.2839 L 873.41988,456.2839 L 873.41988,454.72478 L 874.90817,454.72478 z M 874.90817,459.54255 L 874.90817,461.10168 L 873.41988,461.10168 L 873.41988,459.54255 L 874.90817,459.54255 z M 874.90817,464.36033 L 874.90817,465.91945 L 873.41988,465.91945 L 873.41988,464.36033 L 874.90817,464.36033 z M 874.90817,469.17812 L 874.90817,470.73723 L 873.41988,470.73723 L 873.41988,469.17812 L 874.90817,469.17812 z M 874.90817,473.99589 L 874.90817,475.55502 L 873.41988,475.55502 L 873.41988,473.99589 L 874.90817,473.99589 z M 874.90817,478.81367 L 874.90817,480.37279 L 873.41988,480.37279 L 873.41988,478.81367 L 874.90817,478.81367 z M 874.90817,483.63145 L 874.90817,485.19057 L 873.41988,485.19057 L 873.41988,483.63145 L 874.90817,483.63145 z M 874.90817,488.44924 L 874.90817,490.00835 L 873.41988,490.00835 L 873.41988,488.44924 L 874.90817,488.44924 z M 874.90817,493.26701 L 874.90817,494.82614 L 873.41988,494.82614 L 873.41988,493.26701 L 874.90817,493.26701 z M 874.90817,498.08479 L 874.90817,499.64391 L 873.41988,499.64391 L 873.41988,498.08479 L 874.90817,498.08479 z M 874.90817,502.90257 L 874.90817,504.46169 L 873.41988,504.46169 L 873.41988,502.90257 L 874.90817,502.90257 z M 874.90817,507.72036 L 874.90817,509.27947 L 873.41988,509.27947 L 873.41988,507.72036 L 874.90817,507.72036 z M 874.90817,512.53813 L 874.90817,514.09726 L 873.41988,514.09726 L 873.41988,512.53813 L 874.90817,512.53813 z M 874.90817,517.35591 L 874.90817,518.91503 L 873.41988,518.91503 L 873.41988,517.35591 L 874.90817,517.35591 z M 874.90817,522.17368 L 874.90817,523.73281 L 873.41988,523.73281 L 873.41988,522.17368 L 874.90817,522.17368 z M 874.90817,526.99146 L 874.90817,528.55058 L 873.41988,528.55058 L 873.41988,526.99146 L 874.90817,526.99146 z M 874.90817,531.80925 L 874.90817,533.36838 L 873.41988,533.36838 L 873.41988,531.80925 L 874.90817,531.80925 z M 874.90817,536.62703 L 874.90817,538.18615 L 873.41988,538.18615 L 873.41988,536.62703 L 874.90817,536.62703 z M 874.90817,541.4448 L 874.90817,543.00393 L 873.41988,543.00393 L 873.41988,541.4448 L 874.90817,541.4448 z M 874.90817,546.26258 L 874.90817,547.8217 L 873.41988,547.8217 L 873.41988,546.26258 L 874.90817,546.26258 z M 874.90817,551.08036 L 874.90817,552.6395 L 873.41988,552.6395 L 873.41988,551.08036 L 874.90817,551.08036 z "
       id="path2522"
       sodipodi:nodetypes="cccccccccccccccccccccccccccccccccccccccccccccccccccccccccccccccccccccccccccccccccccccccccccccccccccccccccccccc" />
  </g>
</svg>
